# xmcd
# 
# Track frame offsets:
#     150
#     25687
#     52860
#     69792
#     89465
#     104505
#     129602
#     146992
#     167722
#     188570
#     209715
#     214155
#     230770
#     250200
# 
# Disc length: 3586
# 
# Revision: 4
# Processed by: cddbd v1.5.2PL0 Copyright (c) Steve Scherf et al.
# Submitted via: fre:ac v1.0.31
# 
DISCID=cd0e000e
DTITLE=郭富城 - 百事郭富城一變傾城演唱會98
DYEAR=1999
DGENRE=Pop
TTITLE0=演唱會序幕
TTITLE1=一變傾城
TTITLE2=風裏密碼
TTITLE3=I Love You So 太愛妳
TTITLE4=有效日期
TTITLE5=鐵幕誘惑
TTITLE6=聽風的歌
TTITLE7=極度哀艷的晚上
TTITLE8=複製靈魂
TTITLE9=純真傳說
TTITLE10=Love Me Tender
TTITLE11=戀愛中
TTITLE12=忘不了
TTITLE13=國王的新歌
EXTD=
EXTT0=
EXTT1=
EXTT2=
EXTT3=
EXTT4=
EXTT5=
EXTT6=
EXTT7=
EXTT8=
EXTT9=
EXTT10=
EXTT11=
EXTT12=
EXTT13=
PLAYORDER=
